<?xml version="1.0" standalone="no"?>
<svg xmlns="http://www.w3.org/2000/svg" viewBox="0 0 77.6 29" width="77.6" height="29"><path fill="#0019ff" fill-rule="nonzero" d="M0 20.81L0 0.19L5.69 0.19Q7.90 0.19 9 1.42Q10.10 2.64 10.13 5.04L10.13 5.04L10.18 14.69Q10.20 17.74 9.12 19.27Q8.04 20.81 5.54 20.81L5.54 20.81L0 20.81ZM4.15 17.16L4.87 17.16Q6 17.16 6 16.06L6 16.06L6 5.42Q6 4.73 5.89 4.38Q5.78 4.03 5.50 3.91Q5.21 3.79 4.61 3.79L4.61 3.79L4.15 3.79L4.15 17.16ZM16.73 21Q13.92 21 12.67 19.61Q11.42 18.22 11.42 15.12L11.42 15.12L11.42 13.10L15.48 13.10L15.48 15.67Q15.48 17.21 16.46 17.21L16.46 17.21Q17.02 17.21 17.23 16.88Q17.45 16.56 17.45 15.79L17.45 15.79Q17.45 14.78 17.21 14.12Q16.97 13.46 16.60 13.02Q16.22 12.58 15.26 11.64L15.26 11.64L13.49 9.86Q11.42 7.85 11.42 5.40L11.42 5.40Q11.42 2.76 12.64 1.38Q13.85 0 16.18 0L16.18 0Q18.96 0 20.18 1.48Q21.41 2.95 21.41 6.10L21.41 6.10L17.21 6.10L17.18 4.68Q17.18 4.27 16.96 4.03Q16.73 3.79 16.32 3.79L16.32 3.79Q15.84 3.79 15.60 4.06Q15.36 4.32 15.36 4.78L15.36 4.78Q15.36 5.78 16.51 6.86L16.51 6.86L18.91 9.17Q19.75 9.98 20.30 10.72Q20.86 11.45 21.19 12.44Q21.53 13.44 21.53 14.81L21.53 14.81Q21.53 17.86 20.41 19.43Q19.30 21 16.73 21L16.73 21ZM22.90 20.81L22.90 0.19L29.23 0.19Q30.74 0.19 31.57 0.88Q32.40 1.56 32.69 2.80Q32.98 4.03 32.98 5.95L32.98 5.95Q32.98 7.70 32.52 8.69Q32.06 9.67 30.94 10.06L30.94 10.06Q31.87 10.25 32.29 10.99Q32.71 11.74 32.71 13.01L32.71 13.01L32.66 20.81L28.63 20.81L28.63 12.74Q28.63 11.88 28.30 11.64Q27.96 11.40 27.07 11.40L27.07 11.40L27.07 20.81L22.90 20.81ZM27.10 7.82L28.08 7.82Q28.94 7.82 28.94 5.95L28.94 5.95Q28.94 5.14 28.87 4.73Q28.80 4.32 28.61 4.16Q28.42 4.01 28.06 4.01L28.06 4.01L27.10 4.01L27.10 7.82Z" transform="translate(0, 4)"></path><line x1="41.976" y1="2%" x2="41.976" y2="98%" stroke="#0019ff" stroke-linecap="round"></line><g fill="#72edca" color="#72edca" transform="translate(50.976 0) scale(0.6041667)"><svg width="44.0" height="48.0" x="0.0" y="0.0" viewBox="0 0 44 48"><path fill="currentColor" fill-rule="evenodd" d="M26.592 7.876c-1.442 3.958-2.352 9.744-2.352 16.195 0 6.393.894 12.136 2.311 16.09-.691.939-1.454 1.46-2.256 1.46-3.13-.003-5.665-7.895-5.665-17.634 0-9.734 2.535-17.63 5.661-17.63.82.001 1.599.546 2.3 1.52M37.084 24.07c.003 6.693-1.663 12.123-3.716 12.123s-3.717-5.43-3.717-12.121c0-6.696 1.664-12.124 3.717-12.127 2.056.003 3.719 5.43 3.716 12.125M21.51 0c2.12.002 4.037 2.67 5.43 6.98 1.172-2.82 2.642-4.504 4.238-4.504 3.83-.005 6.936 9.668 6.934 21.594.002 11.926-3.106 21.597-6.937 21.596-1.607 0-3.089-1.711-4.265-4.573-1.389 4.256-3.296 6.882-5.397 6.884-4.257-.002-7.708-10.74-7.708-23.99C13.805 10.745 17.257 0 21.51 0zm-6.145 2.36c-5.194 4.504-8.651 12.467-8.651 21.535 0 9.067 3.455 17.03 8.655 21.531C6.292 41.661-.003 33.435 0 23.894 0 14.356 6.292 6.129 15.365 2.361zm26.647 14.91c1.098 0 1.986 2.9 1.988 6.483-.002 3.577-.891 6.48-1.99 6.48-1.096 0-1.985-2.9-1.987-6.482-.002-3.58.891-6.482 1.99-6.482z"></path></svg></g></svg>